<svg xmlns="http://www.w3.org/2000/svg" width="74.664" height="80" viewBox="0 0 74.664 80"><defs><style>.a{fill:#3d405b;}.b{fill:#c6091b;}</style></defs><path class="a" d="M91.425,33.513l-4.687-8.119a2.344,2.344,0,0,0-3.2-.858l-3.463,2a16.254,16.254,0,0,0-2.228-1.294V21.25A2.344,2.344,0,0,0,75.5,18.906H66.126a2.344,2.344,0,0,0-2.344,2.344v3.992a16.253,16.253,0,0,0-2.228,1.294l-7.21-3.968c.042-.453.063-.89.063-1.317s-.021-.864-.062-1.317l3.41-1.969a2.344,2.344,0,0,0,.858-3.2L53.925,6.644a2.344,2.344,0,0,0-3.2-.858l-3.463,2a16.253,16.253,0,0,0-2.228-1.294V2.344A2.344,2.344,0,0,0,42.688,0H33.313a2.344,2.344,0,0,0-2.344,2.344V6.492a16.263,16.263,0,0,0-2.228,1.294l-3.463-2a2.344,2.344,0,0,0-3.2.858l-4.688,8.119a2.344,2.344,0,0,0,.858,3.2l3.41,1.969c-.042.453-.062.89-.062,1.317s.021.864.062,1.317l-3.41,1.969a2.344,2.344,0,0,0-.858,3.2l4.688,8.119a2.344,2.344,0,0,0,3.2.858l3.463-2a16.243,16.243,0,0,0,2.228,1.294v7.983a16.262,16.262,0,0,0-2.228,1.294l-3.463-2a2.344,2.344,0,0,0-3.2.858l-4.687,8.119a2.344,2.344,0,0,0,.858,3.2l3.41,1.969c-.042.453-.062.891-.062,1.317s.021.864.062,1.317l-3.41,1.969a2.344,2.344,0,0,0-.858,3.2l4.688,8.119a2.344,2.344,0,0,0,3.2.858l3.463-2a16.243,16.243,0,0,0,2.228,1.294v4.148A2.344,2.344,0,0,0,33.313,80h9.375a2.344,2.344,0,0,0,2.344-2.344V73.508a16.254,16.254,0,0,0,2.228-1.294l3.463,2a2.344,2.344,0,0,0,3.2-.858l4.688-8.119a2.344,2.344,0,0,0-.858-3.2l-3.41-1.969c.042-.453.063-.89.063-1.317s-.021-.864-.062-1.317l7.21-3.968a16.252,16.252,0,0,0,2.228,1.294V58.75a2.344,2.344,0,0,0,2.344,2.344H75.5a2.344,2.344,0,0,0,2.344-2.344V54.758a16.255,16.255,0,0,0,2.228-1.294l3.463,2a2.344,2.344,0,0,0,3.2-.858l4.688-8.119a2.344,2.344,0,0,0-.858-3.2l-3.41-1.969c.042-.453.062-.89.062-1.317s-.021-.864-.062-1.317l3.41-1.969A2.343,2.343,0,0,0,91.425,33.513Zm-36.955,7.8-7.21,3.968a16.252,16.252,0,0,0-2.228-1.294V36.008a16.253,16.253,0,0,0,2.228-1.294l7.21,3.968c-.042.453-.062.89-.062,1.317S54.428,40.864,54.469,41.317Zm-24.023-11.2a2.344,2.344,0,0,0-2.693-.247l-2.789,1.61L22.62,27.423l2.748-1.586A2.344,2.344,0,0,0,26.5,23.381a11.573,11.573,0,0,1-.219-2.131,11.562,11.562,0,0,1,.219-2.131,2.343,2.343,0,0,0-1.133-2.456l-2.748-1.586,2.344-4.06,2.789,1.61a2.344,2.344,0,0,0,2.693-.247A11.635,11.635,0,0,1,34.1,10.259a2.344,2.344,0,0,0,1.557-2.208V4.688h4.687V8.051A2.344,2.344,0,0,0,41.9,10.259a11.634,11.634,0,0,1,3.654,2.122,2.344,2.344,0,0,0,2.693.247l2.789-1.61,2.344,4.06-2.748,1.586A2.344,2.344,0,0,0,49.5,19.119a11.575,11.575,0,0,1,.219,2.131,11.56,11.56,0,0,1-.219,2.131,2.344,2.344,0,0,0,1.133,2.456l2.748,1.586-2.344,4.059-2.789-1.61a2.344,2.344,0,0,0-2.693.247A11.63,11.63,0,0,1,41.9,32.241a2.343,2.343,0,0,0-1.557,2.208v3.208H35.657V34.448A2.344,2.344,0,0,0,34.1,32.241,11.632,11.632,0,0,1,30.446,30.119ZM49.5,56.619a10.465,10.465,0,0,1,0,4.262,2.344,2.344,0,0,0,1.133,2.456l2.748,1.586-2.344,4.059-2.789-1.61a2.344,2.344,0,0,0-2.693.247A11.631,11.631,0,0,1,41.9,69.741a2.343,2.343,0,0,0-1.557,2.208v3.364H35.657V71.948A2.344,2.344,0,0,0,34.1,69.741a11.633,11.633,0,0,1-3.654-2.122,2.344,2.344,0,0,0-2.693-.247l-2.789,1.61-2.344-4.059,2.748-1.586A2.344,2.344,0,0,0,26.5,60.881a10.465,10.465,0,0,1,0-4.262,2.343,2.343,0,0,0-1.133-2.456l-2.748-1.586,2.344-4.06,2.789,1.61a2.344,2.344,0,0,0,2.693-.247A11.635,11.635,0,0,1,34.1,47.759a2.344,2.344,0,0,0,1.557-2.208V42.344h4.687v3.208A2.344,2.344,0,0,0,41.9,47.759a11.634,11.634,0,0,1,3.654,2.122,2.344,2.344,0,0,0,2.693.247l2.789-1.61,2.344,4.06-2.748,1.586A2.343,2.343,0,0,0,49.5,56.619ZM82.313,37.87a10.47,10.47,0,0,1,0,4.261,2.343,2.343,0,0,0,1.133,2.456l2.748,1.586L83.85,50.233l-2.789-1.61a2.343,2.343,0,0,0-2.693.247,11.631,11.631,0,0,1-3.654,2.122A2.344,2.344,0,0,0,73.157,53.2v3.208H68.469V53.2a2.344,2.344,0,0,0-1.557-2.208,11.632,11.632,0,0,1-3.654-2.122,2.344,2.344,0,0,0-2.693-.247l-3.041,1.756-2.344-4.059,3-1.732a2.344,2.344,0,0,0,1.133-2.456,10.465,10.465,0,0,1,0-4.262,2.344,2.344,0,0,0-1.133-2.456l-3-1.732,2.344-4.059,3.041,1.756a2.344,2.344,0,0,0,2.693-.247,11.633,11.633,0,0,1,3.654-2.122A2.344,2.344,0,0,0,68.469,26.8V23.594h4.688V26.8a2.344,2.344,0,0,0,1.557,2.208,11.634,11.634,0,0,1,3.654,2.122,2.344,2.344,0,0,0,2.693.247l2.789-1.61,2.344,4.06-2.748,1.586A2.343,2.343,0,0,0,82.313,37.87Z" transform="translate(-17.075)"/><path class="b" d="M99.688,104.376,109.063,95a2.344,2.344,0,0,0-3.315-3.315L98.031,99.4,95,96.374a2.344,2.344,0,0,0-3.315,3.315l4.688,4.687a2.344,2.344,0,0,0,3.315,0Z" transform="translate(-79.449 -76.781)"/><path class="a" d="M105.749,331.686,98.031,339.4,95,336.374a2.344,2.344,0,0,0-3.315,3.314l4.688,4.687a2.344,2.344,0,0,0,3.315,0L109.063,335a2.344,2.344,0,1,0-3.314-3.314Z" transform="translate(-79.449 -279.281)"/><path class="a" d="M315.749,211.686l-7.718,7.718-3.03-3.03a2.344,2.344,0,0,0-3.315,3.315l4.688,4.688a2.344,2.344,0,0,0,3.315,0L319.063,215a2.344,2.344,0,1,0-3.314-3.314Z" transform="translate(-256.636 -178.031)"/></svg>