<svg xmlns="http://www.w3.org/2000/svg" width="32" height="24.375" viewBox="0 0 32 24.375"><defs><style>.a{fill:#3d405a;}.b{fill:#b01225;}</style></defs><g transform="translate(0)"><path class="a" d="M122.813,61h18.875a2.813,2.813,0,1,1,0,5.625H122.813a2.813,2.813,0,0,1,0-5.625Z" transform="translate(-120 -61)"/></g><g transform="translate(0 9.375)"><path class="a" d="M122.813,211h18.875a2.813,2.813,0,1,1,0,5.625H122.813a2.813,2.813,0,0,1,0-5.625Z" transform="translate(-120 -211)"/></g><g transform="translate(0 18.75)"><path class="a" d="M122.813,361h18.875a2.812,2.812,0,1,1,0,5.625H122.813a2.812,2.812,0,1,1,0-5.625Z" transform="translate(-120 -361)"/></g><g transform="translate(26.375)"><path class="b" d="M2.813,61A2.813,2.813,0,1,1,0,63.813,2.816,2.816,0,0,1,2.813,61Z" transform="translate(0 -61)"/></g><g transform="translate(26.375 9.375)"><path class="b" d="M2.813,211A2.813,2.813,0,1,1,0,213.813,2.816,2.816,0,0,1,2.813,211Z" transform="translate(0 -211)"/></g><g transform="translate(26.375 18.75)"><path class="b" d="M2.813,361A2.812,2.812,0,1,1,0,363.813,2.816,2.816,0,0,1,2.813,361Z" transform="translate(0 -361)"/></g></svg>