<svg xmlns="http://www.w3.org/2000/svg" width="78.377" height="80" viewBox="0 0 78.377 80"><defs><style>.a{fill:#c6091b;}.b{fill:#3d405b;}</style></defs><g transform="translate(-969 -1712)"><path class="a" d="M98.3,78.375v5.781a12.514,12.514,0,0,1-12.5,12.5,3.125,3.125,0,1,1,0-6.25,6.257,6.257,0,0,0,6.25-6.25V78.375a3.125,3.125,0,1,1,6.25,0Z" transform="translate(949.077 1695.343)"/><path class="b" d="M64.938,44.937l-.924-.924a.339.339,0,0,1-.059-.367l.024-.059a.306.306,0,0,1,.3-.15H65.59a8.362,8.362,0,0,0,8.316-8.39v-2.6a8.136,8.136,0,0,0-2.46-5.863,8.318,8.318,0,0,0-5.856-2.371H64.282a.522.522,0,0,1-.309-.32l-.015-.035a.344.344,0,0,1,.056-.377l.924-.924a8.315,8.315,0,0,0,0-11.76L63.1,8.968a8.314,8.314,0,0,0-11.76,0l-.925.924a.341.341,0,0,1-.372.057l-.053-.022a.306.306,0,0,1-.15-.3V8.316A8.361,8.361,0,0,0,41.454,0h-2.6a8.362,8.362,0,0,0-8.39,8.315V9.623a.3.3,0,0,1-.147.3l-.051.021a.344.344,0,0,1-.377-.055l-.924-.925a8.317,8.317,0,0,0-11.76,0L15.374,10.8a8.316,8.316,0,0,0,0,11.76l.925.924a.342.342,0,0,1,.057.372l-.023.053a.3.3,0,0,1-.3.15H14.721a8.362,8.362,0,0,0-8.315,8.39v2.6a8.136,8.136,0,0,0,2.46,5.863,8.317,8.317,0,0,0,5.855,2.371h1.307a.521.521,0,0,1,.309.319l.015.036a.344.344,0,0,1-.055.377l-.925.924a8.325,8.325,0,0,0,0,11.76l1.835,1.835a8.325,8.325,0,0,0,11.76,0l.924-.925a.342.342,0,0,1,.372-.057l.053.023a.3.3,0,0,1,.15.3v1.307a8.362,8.362,0,0,0,8.39,8.316h2.6a8.362,8.362,0,0,0,8.39-8.316V57.877a.3.3,0,0,1,.15-.3l.048-.02a.344.344,0,0,1,.377.055l.924.925a8.325,8.325,0,0,0,11.76,0L64.939,56.7a8.325,8.325,0,0,0,0-11.76Zm-5.343,3.5.924.924a2.068,2.068,0,0,1,0,2.921l-1.835,1.835a2.068,2.068,0,0,1-2.921,0l-.924-.924a6.575,6.575,0,0,0-7.2-1.407l-.033.013a6.533,6.533,0,0,0-4.014,6.082v1.307a2.132,2.132,0,0,1-2.14,2.066h-2.6a2.132,2.132,0,0,1-2.14-2.066V57.877A6.533,6.533,0,0,0,32.7,51.8l-.037-.015a6.66,6.66,0,0,0-2.557-.512,6.545,6.545,0,0,0-4.636,1.92l-.924.925a2.068,2.068,0,0,1-2.921,0l-1.835-1.835a2.068,2.068,0,0,1,0-2.921l.925-.924a6.576,6.576,0,0,0,1.4-7.2L22.11,41.2a6.7,6.7,0,0,0-6.082-4.171H14.721a2,2,0,0,1-2.065-1.984v-2.6a2.132,2.132,0,0,1,2.065-2.14h1.307a6.537,6.537,0,0,0,6.086-4.026l.01-.026a6.572,6.572,0,0,0-1.408-7.194l-.924-.924a2.066,2.066,0,0,1,0-2.921l1.835-1.835a2.066,2.066,0,0,1,2.921,0l.925.924a6.573,6.573,0,0,0,7.2,1.406L32.7,15.7a6.533,6.533,0,0,0,4.014-6.081V8.316a2.132,2.132,0,0,1,2.14-2.065h2.6a2.132,2.132,0,0,1,2.14,2.065V9.623a6.534,6.534,0,0,0,4.017,6.082l.034.014a6.571,6.571,0,0,0,7.194-1.408l.924-.924a2.066,2.066,0,0,1,2.921,0l1.835,1.835a2.066,2.066,0,0,1,0,2.921l-.925.924a6.575,6.575,0,0,0-1.406,7.2l.013.033a6.7,6.7,0,0,0,6.082,4.171H65.59a2,2,0,0,1,2.065,1.984v2.6a2.132,2.132,0,0,1-2.065,2.14H64.283A6.532,6.532,0,0,0,58.2,41.2l-.016.04a6.571,6.571,0,0,0,1.408,7.194ZM54.843,76.875A3.125,3.125,0,0,1,51.718,80H12.5A12.514,12.514,0,0,1,0,67.5V61.719a3.125,3.125,0,0,1,6.25,0V67.5a6.257,6.257,0,0,0,6.25,6.25H51.718a3.125,3.125,0,0,1,3.125,3.125Zm-3.4-43.683a3.126,3.126,0,0,1,0,4.42l-4.8,4.8a9.375,9.375,0,0,1-13.259,0l-4.8-4.8a3.125,3.125,0,0,1,4.419-4.42l4.036,4.036-.014-14.255a3.125,3.125,0,0,1,3.122-3.128h0a3.125,3.125,0,0,1,3.125,3.122l.014,13.959,3.733-3.733a3.126,3.126,0,0,1,4.42,0Zm0,0" transform="translate(969 1712)"/></g></svg>